/* XPM */
static char *bitcoin32[] = {
/* columns rows colors chars-per-pixel */
"32 32 191 2 ",
"   c #020202",
".  c #0B0B0B",
"X  c #0F0E10",
"o  c #131313",
"O  c #1C1C1C",
"+  c #052902",
"@  c #222222",
"#  c #2A2A2A",
"$  c #333333",
"%  c #3D3D3D",
"&  c #0B7B00",
"*  c #42653E",
"=  c #444444",
"-  c #4B4B4B",
";  c #545454",
":  c #5F5F5F",
">  c #636363",
",  c #6C6C6C",
"<  c #6E6F70",
"1  c #707070",
"2  c #7B7B7B",
"3  c #0E8C00",
"4  c #158408",
"5  c #229415",
"6  c #269719",
"7  c #29991C",
"8  c #2E9A21",
"9  c #61835D",
"0  c #678D63",
"q  c #7F9C7B",
"w  c #EEB009",
"e  c #F2B30C",
"r  c #E5AC13",
"t  c #E5AE1A",
"y  c #E8B01D",
"u  c #F3B614",
"i  c #F5B815",
"p  c #F3B719",
"a  c #F6BA1C",
"s  c #D4A527",
"d  c #D8A722",
"f  c #D0A42D",
"g  c #DDB12D",
"h  c #C7A036",
"j  c #CCA537",
"k  c #C9A238",
"l  c #CDA93E",
"z  c #D3A936",
"x  c #E5B627",
"c  c #EDB22D",
"v  c #EBB92A",
"b  c #F5BA21",
"n  c #F2B12C",
"m  c #F5BD2B",
"M  c #F8BE28",
"N  c #E8AD35",
"B  c #E3AD3C",
"V  c #E2B132",
"C  c #EDB333",
"Z  c #E9BD33",
"A  c #E0B739",
"S  c #EDB53B",
"D  c #EEBA3D",
"F  c #F1B433",
"G  c #F1BC32",
"H  c #F0B639",
"J  c #F3BB39",
"K  c #ECC035",
"L  c #ECC33B",
"P  c #F4C135",
"I  c #F4C33D",
"U  c #C49F54",
"Y  c #C3A142",
"T  c #CBA841",
"R  c #C3A64E",
"E  c #CDA44E",
"W  c #CBA84E",
"Q  c #D4A545",
"!  c #D7A847",
"~  c #DCAB43",
"^  c #D5AA4D",
"/  c #DAB348",
"(  c #C5A257",
")  c #CAA656",
"_  c #C3A855",
"`  c #C5A65E",
"'  c #CBAA5B",
"]  c #D2AB53",
"[  c #CEB357",
"{  c #D3B652",
"}  c #DDB451",
"|  c #DAB658",
" . c #D8BE5E",
".. c #E5B444",
"X. c #EAB645",
"o. c #E3BC44",
"O. c #EDBA43",
"+. c #E1B44D",
"@. c #E8B64C",
"#. c #E1BB4B",
"$. c #E9BB4C",
"%. c #E5B954",
"&. c #E5BD5F",
"*. c #E8B958",
"=. c #C0AA68",
"-. c #CEB663",
";. c #C6B570",
":. c #EDC641",
">. c #EEC847",
",. c #ECC34E",
"<. c #EEC849",
"1. c #F5C444",
"2. c #F0CA47",
"3. c #F3CB4D",
"4. c #E2C154",
"5. c #EAC452",
"6. c #EBC952",
"7. c #E3C459",
"8. c #EAC05C",
"9. c #EBCC5E",
"0. c #F3CF54",
"q. c #F0CF5F",
"w. c #F6D157",
"e. c #F4D55D",
"r. c #D7C36F",
"t. c #E4C665",
"y. c #EACC63",
"u. c #E7C069",
"i. c #E9C76D",
"p. c #E4C969",
"a. c #E9CF6A",
"s. c #EED368",
"d. c #F5D762",
"f. c #F6D862",
"g. c #E4C272",
"h. c #E8C570",
"j. c #E2C974",
"k. c #E8C873",
"l. c #E4C47D",
"z. c #E3CB7B",
"x. c #E8CA7D",
"c. c #EDD575",
"v. c #ECD578",
"b. c #7E7F80",
"n. c #838383",
"m. c #888788",
"M. c #8C8C8C",
"N. c #939393",
"B. c #9E9E9E",
"V. c #86A882",
"C. c #88A884",
"Z. c #9BB897",
"A. c #A4A4A4",
"S. c #AAAAAA",
"D. c #B3B3B3",
"F. c #BBBBBB",
"G. c #A2CB9D",
"H. c #A9CEA5",
"J. c #B4D3B0",
"K. c #E3C686",
"L. c #E4CA82",
"P. c #E8CD82",
"I. c #E2C78C",
"U. c #E4CE8D",
"Y. c #E9D284",
"T. c #E4CA90",
"R. c #E4D496",
"E. c #E7D698",
"W. c #E6D89D",
"Q. c #D0CBBF",
"!. c #E3CFA6",
"~. c #E5D3A7",
"^. c #E4D2A9",
"/. c #E3D4B4",
"(. c #E4D9B6",
"). c #E4D7BC",
"_. c #E4DABD",
"`. c #C4C4C4",
"'. c #CBCBCB",
"]. c #D4D4D4",
"[. c #DDDCDD",
"{. c #E5DDC3",
"}. c #E4DDCC",
"|. c #E4DED2",
" X c #E4E0D4",
".X c #E5E3DC",
"XX c #E6E5E5",
"oX c #E6E7E8",
"OX c #E7E8E9",
"+X c #EAEAEA",
"@X c None",
/* pixels */
"@X@X@X@X@X@X@X@X@X@X@X@X@X@X@X@X@X@X@X@X@X@X@X@X@X@X@X@X@X@X@X@X",
"@X@X@X@X@X@X@X@X@X@X@X` ] } %.%.7.4.#./ W @X@X@X@X@X@X@X@X@X@X@X",
"@X@X@X@X@X@X@X@X@X] ..X.O.O.1.,.6.6.2.I m v z @X@X@X@X@X@X@X@X@X",
"@X@X@X@X@X@X@X) ..S J X.$.&.g.l.L.z.p.<.I M a y k @X@X@X@X@X@X@X",
"@X@X@X@X@X@X^ S H S %.I.{..XXXXXXXXX.X_.U.,.m i e s @X@X@X@X@X@X",
"@X@X@X@X@X~ F F X.T.Q.1 b.S.].XXXXXXoXoXXX|.P.G i e d @X@X@X@X@X",
"@X@X@X@X! F F %./.oXXX;     , XXXXXXXXoXXXoXXX^.D u w s @X@X@X@X",
"@X@X@XE c c @.{.oX[.< X .   n.+XXXXXXXXXXXXXXXoX(.D u w h @X@X@X",
"@X@X@XN n X./.XX[.,   > N.O D.+X[.].[.XX+XoXoXoXXX~.v e r @X@X@X",
"@X@XQ n n K.XX+XN.. , [.XXn.N.: $ # $ : A.[.oXoXXXXXx.p e f @X@X",
"@X@XS n @.|.+X`.@ % [.XX].; . O = ; = O . ; `.OXXXoX}.D i t @X@X",
"@X' H n K.XX+X2 X A.+X[.- . 1 '.+X+XXX'.2 o $ `.+XXXXXx.b u T @X",
"@X| 1.O.).oX[.$ % [.+Xn.. n.XXH.C.m.A.[.+XB.o - [.XXXX(.G b z @X",
"@X7.1.*.|.+X`.o 2 +X].# = [.G.5 & + . - '.+Xq . B.+XoX X5.M V @X",
"@X9.3.k.XX+XA.. B.+XF.. M.G.5 3 3 4 * o - [.].@ ; XXXX.Xp.P F @X",
"@Xy.w.P.XX+XB.. S.+XB.X 0 6 3 3 3 4 7 * X D.+X; # ].XXXXz.I D @X",
"@Xs.e.Y.XX+XA.. A.+XA.. 9 7 3 3 3 3 8 q X N.+X1 O '.oXXXx.<.,.@X",
"@Xy.f.Y.XXoXF.o m.+X'.O : H.6 4 3 8 J.A.. B.+X, O '.oX.Xj.<.4.@X",
"@X7.e.v. XXX].# - XXXX: X A.H.6 8 J.[.- O '.oX= $ [.oX|.t.6. .@X",
"@X{ 0.s.{.oXXX< X D.OX'.$ o b.C.Z.D.; . b.+X`.o , XXoX/.$.,.-.@X",
"@X_ :.0.W.oX+X`.O = [.+X`.- . X O X o 2 [.+X, X D.+XXXK.O.,.=.@X",
"@X@XA :.a. XoXoXm.. : [.+X[.S.q , n.F.+X+XN.X > XXoX}.%.O.} @X@X",
"@X@XT Z <.R.XXoXXX1 . = F.XX+X+X+X+X+X].2 X = '.XXXXK.X.O.' @X@X",
"@X@X@Xg Z 6.(.oXXX[.m.o o ; N.D.F.A.2 $   ; '.+XXX!.X.J +.@X@X@X",
"@X@X@XY x L 9.{.oXXXOXF.> @ . X X . X % N.[.+X+X/.@.D X.` @X@X@X",
"@X@X@X@Xj v L y.(.XXXX+XXX].S.N.M.B.F.[.+XXXXX!.@.S S ] @X@X@X@X",
"@X@X@X@X@Xj Z :.9.W. XXXXXoXOX+X+X+XOXXXXX}.l.S F H ^ @X@X@X@X@X",
"@X@X@X@X@X@Xl Z 2.e.c.E._. X.XXXXX.X|.^.l...F F S W @X@X@X@X@X@X",
"@X@X@X@X@X@X@XR o.<.e.d.q.y.i.k.u.*.X.c n c F B ( @X@X@X@X@X@X@X",
"@X@X@X@X@X@X@X@X@X[ 7.f.f.w.3.1.J F n n c B E @X@X@X@X@X@X@X@X@X",
"@X@X@X@X@X@X@X@X@X@X@X;.r.u.7.5.$.X.B Q U @X@X@X@X@X@X@X@X@X@X@X",
"@X@X@X@X@X@X@X@X@X@X@X@X@X@X@X@X@X@X@X@X@X@X@X@X@X@X@X@X@X@X@X@X"
};
