/* XPM */
static char *bitcoin64[] = {
/* columns rows colors chars-per-pixel */
"64 64 256 2 ",
"   c #010101",
".  c #0C0C0C",
"X  c #021201",
"o  c #141414",
"O  c #1B1B1B",
"+  c #242424",
"@  c #2C2C2C",
"#  c #333333",
"$  c #3B3B3B",
"%  c #096400",
"&  c #1D7812",
"*  c #434343",
"=  c #4B4B4B",
"-  c #434E42",
";  c #545454",
":  c #5B5B5B",
">  c #495847",
",  c #50604E",
"<  c #5D6B5B",
"1  c #636363",
"2  c #6B6B6B",
"3  c #637561",
"4  c #747474",
"5  c #7B7B7B",
"6  c #0E8C00",
"7  c #3A9E2E",
"8  c #39952E",
"9  c #3DA232",
"0  c #49A43E",
"q  c #4BA740",
"w  c #4DA842",
"e  c #5AAC51",
"r  c #7C857B",
"t  c #DCA81C",
"y  c #EFB005",
"u  c #F1B104",
"i  c #F2B30B",
"p  c #E0AA16",
"a  c #ECB010",
"s  c #E6B21C",
"d  c #EAB31D",
"f  c #F3B613",
"g  c #F3B71B",
"h  c #F5B91C",
"j  c #F5B816",
"k  c #E8AD0C",
"l  c #C29E3E",
"z  c #D6A624",
"x  c #DBAA27",
"c  c #D2A52A",
"v  c #D7AB2C",
"b  c #C9A43C",
"n  c #D7AB36",
"m  c #E1AE23",
"M  c #ECAD2C",
"N  c #F0AF29",
"B  c #EAB623",
"V  c #E9B826",
"C  c #EEB22E",
"Z  c #E9BA2C",
"A  c #E6B628",
"S  c #F6BB24",
"D  c #F8BD24",
"F  c #F2B12D",
"G  c #F6BE2B",
"H  c #F8BF2A",
"J  c #F0B724",
"K  c #E6AD36",
"L  c #EAAE33",
"P  c #E5AE3C",
"I  c #E4B634",
"U  c #EDB234",
"Y  c #EBBD33",
"T  c #E5B23B",
"R  c #EEB63B",
"E  c #EEB83E",
"W  c #F1B433",
"Q  c #F3BB36",
"!  c #F0B639",
"~  c #F3BC3B",
"^  c #F8C02D",
"/  c #F7C02F",
"(  c #ECC036",
")  c #ECC23C",
"_  c #F6C134",
"`  c #F3C33B",
"'  c #BA9C4A",
"]  c #BC9D47",
"[  c #AB965C",
"{  c #B89E53",
"}  c #B59C57",
"|  c #BFA04D",
" . c #BBA152",
".. c #9E916D",
"X. c #968D76",
"o. c #998F74",
"O. c #958E7B",
"+. c #9C9175",
"@. c #9C937B",
"#. c #A59463",
"$. c #A4936C",
"%. c #AC996A",
"&. c #AA9766",
"*. c #B49B64",
"=. c #B99E63",
"-. c #B29C6A",
";. c #A29474",
":. c #A79B76",
">. c #A1967A",
",. c #A49A7A",
"<. c #A89E78",
"1. c #AB9F74",
"2. c #B19F70",
"3. c #B6A264",
"4. c #BEA662",
"5. c #BFA868",
"6. c #AAA17D",
"7. c #B6A976",
"8. c #C29F56",
"9. c #CAA849",
"0. c #D2A64B",
"q. c #DAAD4A",
"w. c #D6AA47",
"e. c #DBB34B",
"r. c #DBB748",
"t. c #C9A454",
"y. c #C1A45D",
"u. c #CBA858",
"i. c #D3AD53",
"p. c #D1AD59",
"a. c #CCB35B",
"s. c #DDB356",
"d. c #DBBA55",
"f. c #DFB65A",
"g. c #DDBD5B",
"h. c #D5B85A",
"j. c #E1AE41",
"k. c #E4B344",
"l. c #EAB641",
"z. c #E6BB44",
"x. c #EDBA43",
"c. c #E2B34A",
"v. c #E4BB4C",
"b. c #ECBE4A",
"n. c #F1BD40",
"m. c #E1B252",
"M. c #E3BB55",
"N. c #E0B45A",
"B. c #E3BE5E",
"V. c #C2AD69",
"C. c #C0A260",
"Z. c #CAB466",
"A. c #DEB762",
"S. c #DDB966",
"D. c #DEBA6B",
"F. c #D4BA67",
"G. c #DEBC73",
"H. c #DEBE7B",
"J. c #C9B772",
"K. c #E2BF65",
"L. c #E0B765",
"P. c #EDC543",
"I. c #EEC845",
"U. c #ECC34D",
"Y. c #EECA4B",
"T. c #E6C44D",
"R. c #F2C343",
"E. c #F4C64A",
"W. c #F2CC4E",
"Q. c #E4C454",
"!. c #EAC552",
"~. c #EBCA54",
"^. c #E5C55E",
"/. c #E5C95C",
"(. c #EECC5A",
"). c #E8C358",
"_. c #F4CD53",
"`. c #F1CE59",
"'. c #F3D155",
"]. c #F4D35C",
"[. c #DEC466",
"{. c #DCC57A",
"}. c #E1C263",
"|. c #EACE62",
" X c #E3C66C",
".X c #EED364",
"XX c #ECD269",
"oX c #F4D662",
"OX c #F6D966",
"+X c #F0D669",
"@X c #E0C171",
"#X c #E3CB73",
"$X c #E1CC7C",
"%X c #E1C57B",
"&X c #E3D07D",
"*X c #7E7F80",
"=X c #848484",
"-X c #8B8B8B",
";X c #948F80",
":X c #969282",
">X c #949494",
",X c #9C9C9C",
"<X c #97A795",
"1X c #A4A3A4",
"2X c #ABABAB",
"3X c #A7A8A8",
"4X c #B3B3B3",
"5X c #BCBCBC",
"6X c #B6BBB4",
"7X c #BED5BB",
"8X c #DDC182",
"9X c #DFCC83",
"0X c #DEC48A",
"qX c #DDCB8C",
"wX c #DDCB95",
"eX c #DDCC9C",
"rX c #DCD09F",
"tX c #E0CA8B",
"yX c #E1CC85",
"uX c #E3D083",
"iX c #E1CD92",
"pX c #E1CD9A",
"aX c #E0C792",
"sX c #DFCDA5",
"dX c #DECFA9",
"fX c #DED1AC",
"gX c #DDD0A7",
"hX c #C2D9BF",
"jX c #DFD4B5",
"kX c #E0CBA2",
"lX c #E1D2A4",
"zX c #E1D3AB",
"xX c #E1D5B3",
"cX c #E2D6BB",
"vX c #E1DABC",
"bX c #C3C3C3",
"nX c #CCCCCC",
"mX c #C3CCC2",
"MX c #CCDCCA",
"NX c #C8D9C6",
"BX c #D0CFD0",
"VX c #D3D3D3",
"CX c #D5DFD4",
"ZX c #DCDCDC",
"AX c #E2DAC4",
"SX c #E2DCCC",
"DX c #E3DED3",
"FX c #D7E2D6",
"GX c #E4E0D5",
"HX c #E4E2DB",
"JX c #E6E6E6",
"KX c #E6E7E8",
"LX c #E8E7E9",
"PX c #E9E9E9",
"IX c #E7E7E4",
"UX c None",
/* pixels */
"UXUXUXUXUXUXUXUXUXUXUXUXUXUXUXUXUXUXUXUXUXUXUXUXUXUXUXUXUXUXUXUXUXUXUXUXUXUXUXUXUXUXUXUXUXUXUXUXUXUXUXUXUXUXUXUXUXUXUXUXUXUXUXUX",
"UXUXUXUXUXUXUXUXUXUXUXUXUXUXUXUXUXUXUXUXUXUXUXUXUXUXUX;X@.>.:.<.<.<.,.@.UXUXUXUXUXUXUXUXUXUXUXUXUXUXUXUXUXUXUXUXUXUXUXUXUXUXUXUX",
"UXUXUXUXUXUXUXUXUXUXUXUXUXUXUXUXUXUXUXUXUXUXUX@.%.C.p.s.m.Q.Q.Q./.Q.Q.M.d.i.y.-.;.UXUXUXUXUXUXUXUXUXUXUXUXUXUXUXUXUXUXUXUXUXUXUX",
"UXUXUXUXUXUXUXUXUXUXUXUXUXUXUXUXUXUXUXUX@.-.p.m.x.x.b.b.b.U.!.!.~.~.~.Y.P.` _ _ I 9.*.X.UXUXUXUXUXUXUXUXUXUXUXUXUXUXUXUXUXUXUXUX",
"UXUXUXUXUXUXUXUXUXUXUXUXUXUXUXUXUXUX;.C.q.x.n.x.b.x.b.x.b.x.U.U.Q.~.~.~.I.P.` _ ^ D S I 8.+.UXUXUXUXUXUXUXUXUXUXUXUXUXUXUXUXUXUX",
"UXUXUXUXUXUXUXUXUXUXUXUXUXUXUXUX@.C.c.R n.R x.x.x.x.x.n.x.x.U.U.!.~.~.~.Y.Y.P.` _ ^ S h j m ] o.UXUXUXUXUXUXUXUXUXUXUXUXUXUXUXUX",
"UXUXUXUXUXUXUXUXUXUXUXUXUXUXUX-.q.~ R n.x.R x.R l.l.l.b.x.k.c.v.v.Q.Q.Q.~.U.I.R.` _ ^ S h j f x [ UXUXUXUXUXUXUXUXUXUXUXUXUXUXUX",
"UXUXUXUXUXUXUXUXUXUXUXUXUX@.t.R ! ~ l.R R l.x.R l.c.N.G.0XkXdXfXfXgXrXqX{.[.Q.P.) _ ^ ^ S h j i a l o.UXUXUXUXUXUXUXUXUXUXUXUXUX",
"UXUXUXUXUXUXUXUXUXUXUXUX$.q.! ! R ! R R E E k.S.wXcXGXKXJXKXKXKXKXKXKXJXHXGXvXwX[.z.Y ^ G S h f i u c #.UXUXUXUXUXUXUXUXUXUXUXUX",
"UXUXUXUXUXUXUXUXUXUXUX%.k.W ! ! R R R R c.H.cXIXLXIXKXIXKXIXKXIXJXKXJXJXIXKXJXJXHXxX@XE G D h h j i u t #.UXUXUXUXUXUXUXUXUXUXUX",
"UXUXUXUXUXUXUXUXUXUX-.P W ! ! ! R R j.G.AX5X5 1XnXZXPXPXKXKXKXIXJXJXKXJXKXJXJXJXKXKXJXxX}.Y ^ h g f i u p [ UXUXUXUXUXUXUXUXUXUX",
"UXUXUXUXUXUXUXUXUX%.P W U W ! W U m.dXHXKXBX$ . O * 2 ,XbXZXKXKXJXJXJXIXJXJXKXJXJXKXKXKXHXpXT J g j f u u p #.UXUXUXUXUXUXUXUXUX",
"UXUXUXUXUXUXUXUX$.j.W W W ! W P D.AXKXKXKXKX3Xo       . o ,XPXKXJXJXJXJXJXJXJXJXJXJXJXJXLXKXvXM.J h j i i u t ..UXUXUXUXUXUXUXUX",
"UXUXUXUXUXUXUX>.q.F C C W W K H.GXKXKXKXKXIX1XO         . 4XPXKXJXJXJXJXJXJXJXJXJXJXJXJXJXJXLXSXK.J g j i y u c X.UXUXUXUXUXUXUX",
"UXUXUXUXUXUXUXt.F F W W W P 8XIXKXIXIXPXZX5 .           + BXKXIXJXJXKXJXJXJXIXJXJXJXJXJXJXJXJXKXDX@XJ g f i u u l UXUXUXUXUXUXUX",
"UXUXUXUXUXUX*.U F F F W L H.HXJXKXKXPXVX1       o .     = HXKXKXJXKXJXIXJXKXJXJXJXJXJXJXJXJXJXJXIXDXK.B j f i u k [ UXUXUXUXUXUX",
"UXUXUXUXUX+.P F C C W M L.HXKXJXJXLXZX:       * 4X=     5 PXKXKXJXJXPXIXKXKXKXKXIXJXKXIXJXKXJXIXIXKXSXv.g j f i u z X.UXUXUXUXUX",
"UXUXUXUXUX8.F F F F M m.AXLXJXJXKXHX2       1 ZXPX6XO   3XPXIXLXKXJXJXZXIXPXPXIXJXKXIXKXIXJXJXIXKXKXKXcXT h f i i y ' UXUXUXUXUX",
"UXUXUXUX;.K F F F F K kXLXJXJXJXKX-X.     1 ZXKXKXKX4 O BXIX5X>X1 = * * = 2 ,XbXJXKXLXKXJXJXIXKXKXIXKXKXtXJ j f i i t o.UXUXUXUX",
"UXUXUXUX8.N N F F M G.HXLXJXJXLX5XO     ; ZXKXKXKXPXVX4 1X; O                 O ; 1XZXKXJXJXKXIXIXKXIXKXHXM.J j i i y ' UXUXUXUX",
"UXUXUX@.j.F N F N K cXKXKXIXKXJX;     # BXIXKXKXLXLXnX; .           .             . ; 5XPXIXKXKXJXJXJXJXKXdXA S j f i x O.UXUXUX",
"UXUXUX*.W W F N M G.JXJXIXIXKX1X.   . 1XPXKXKXKXPX6X#       . * 4 >X1X1X>X2 $ .       O >XKXKXKXJXJXJXJXKXHX^.S h j i a [ UXUXUX",
"UXUXUXp.Q Q F F K xXKXKXJXJXJX=     ; IXIXKXIXIX4X+     . ; 2XZXPXIXPXPXPXIXZX2X: .     . =XIXKXJXJXKXJXKXKXpXW S h j i l UXUXUX",
"UXUX>.v.~ Q Q F f.DXKXIXKXKX4Xo   o 4XKXKXIXKXBX#     o >XZXPXKXIXKXKXKXKXKXPXPXJX1X@     . >XLXJXJXIXJXKXKXDXv.H S h j x X.UXUX",
"UXUX2.R.n.~ Q W aXLXLXLXKXIX5     = ZXKXIXKXJX1     o 1XPXKXKXNXMXJXZXZXKXPXPXKXKXIXbX$     O 4XKXKXJXJXKXIXKX$XG S S h d #.UXUX",
"UXUXV.E.R.n.~ l.xXLXIXIXKXZX$     >XPXKXKXLX2Xo   . -XLXJXPX7X7 8 > # $ : >XVXPXIXKXPXmX#     * VXKXJXJXIXKXKXfXE G S h j { UXUX",
"UXUXA.E.E.R.~ N.DXJXJXJXKXbXo   O bXPXKXKXIX:     = ZXLXKX7X7 6 6 % X     . $ 3XIXKXKXIX2Xo   . ,XIXJXJXJXJXKXAXv._ G S h 9.UXUX",
"UX;XK._.E.E.n.@XJXIXJXJXKX1X.   $ ZXIXKXKXBX+   . 1XPXPX7X7 6 6 6 6 % X       o >XKXKXIXIX2     * ZXIXKXJXJXKXGX^._ _ G D n UXUX",
"UX@.^._._.E.n.tXJXJXJXJXLX=X    : KXKXIXIX1X.   @ VXPX7X7 6 6 6 6 6 6 & , O     O 4XKXKXKX5XO   . 4XPXKXJXKXJXJX@X~ ` ^ H T O.UX",
"UX<.|._._._.b.pXJXJXJXJXPX2     4 IXIXKXPX=X    : PX7X7 6 6 6 6 6 6 6 6 0 <X#     * ZXKXKXJX;     5 IXKXJXJXJXJXqXP.` _ ^ I +.UX",
"UX6.+X]._._.U.lXKXJXJXJXPX1     =XPXIXKXPX2     5 7X7 6 6 6 6 6 6 6 6 6 6 q <Xo   . 2XPXIXPX-X    = JXKXJXJXIXLXwXT.P.` _ Y ;.UX",
"UX6.+XoX]._.!.xXKXJXJXKXLX1     =XPXPXKXPX1     3 0 6 6 6 6 6 6 6 6 6 6 6 6 0 -     5 PXKXIX4X.   # VXIXJXJXIXLXrXT.Y.` ` E ;.UX",
"UX6.+XoX].'.~.zXKXKXIXKXPX1     5 PXIXKXPX2     < q 6 6 6 6 6 6 6 6 6 6 6 6 e O.    ; IXKXKXbXo   + BXKXJXJXJXJXrXQ.Y.I.P.x.,.UX",
"UX6.+XOXOXoX(.zXKXIXKXKXPX5     2 IXKXKXPX=X    ; MX0 6 6 6 6 6 6 6 6 6 6 e FX,X    = KXIXKXnXO   O mXKXJXJXJXJXrXQ.~.Y.P.z.;.UX",
"UX,.|.OXOXoX`.lXKXIXKXKXPX>X    = JXKXKXPX4X.   + BXMX0 6 6 6 6 6 6 6 6 e CXPX-X    ; KXKXIXnXO   O nXLXJXJXJXJXqXQ.~.~.I.d.@.UX",
"UX>./.oXOXOXoXiXJXKXIXPXPX4X.   + BXIXKXPXVX#     =XPXMX0 6 6 6 6 6 6 e CXKXJX;     5 PXIXKX4Xo   @ VXIXJXJXJXJX{.Q.~.~.W.d.UXUX",
"UXUXg.'.oXOXoXuXHXKXKXKXKXVX@   . 1XPXKXIXKX5     + bXPXMX0 6 6 6 6 e FXKXKX5XO   . 2XPXKXPX,X    * ZXIXKXKXJXHX[.U.~.~.~.Z.UXUX",
"UXUXa.'.'.OXOX#XDXKXIXKXKXKX:     1 IXKXKXKXnX@     * BXPXMX0 6 6 e CXLXKXZX=     $ ZXPXKXPX2     2 KXIXIXKXJXAXg.U.Q.~.~.V.UXUX",
"UXUX4.P.'.'.oXXXvXKXJXJXKXLX1X.   O bXIXIXIXPX,X.     $ 4XKXMX0 e FXLXPXnX;     . 1XIXKXKXVX@     ,XPXKXIXKXKXdXc.U.U.~.~.7.UXUX",
"UXUX%.) I.~.]..XlXJXJXJXKXKXCX#     2 KXKXKXKXKX5 .     o : 1X6XmXBX6X*X+       4 KXIXIXPX,X.   + BXKXKXKXIXIXH.z.b.U.U.g.<.UXUX",
"UXUX@.r.) I.'.].uXHXKXKXJXJXPX>XX   o 2XPXKXKXKXHX=Xo       . o + O o       . 2 ZXLXKXLXVX$     2 IXJXJXKXKXDXN.b.b.b.U.f.UXUXUX",
"UXUXUX9.( ) Y.'.|.vXKXKXJXJXLXFX*     $ BXPXIXIXJXLX4X- .                 + >XZXPXLXJXLX=X.   O 5XLXJXJXKXKXkXk.x.b.b.b.5.UXUXUX",
"UXUXUX&.Z ( I.W.'.uXJXKXJXJXJXIX4Xo     ; ZXKXKXJXJXLXZX3X1 # O o o + = -XnXLXKXKXLXIX2Xo     4 JXJXKXJXKXGXL.x.x.x.b.v.:.UXUXUX",
"UXUXUX@.n Z ) I.~./.vXKXJXJXJXKXLX-X.     ; BXIXJXKXIXLXPXKXZXnXbXbXBXJXLXLXIXIXJXPX6X+     $ BXKXJXJXKXKXsXk.x.x.x.l.p.UXUXUXUX",
"UXUXUXUX .Z ( ) Y.W.&XHXKXJXJXJXKXJX2       $ 5XPXPXLXLXJXJXKXLXKXKXIXKXKXIXKXLXJX1X+     O 4XIXKXJXJXKXDXA.l.n.x.x.b.2.UXUXUXUX",
"UXUXUXUXo.v V ( ) Y.~.gXJXJXJXJXJXLXZX2 X     O 5 BXPXLXLXJXJXIXKXKXKXKXKXIXLXBX2 .     O 1XKXIXKXJXJXIX0Xl.l.l.x.n.i.O.UXUXUXUX",
"UXUXUXUXUX} s Z ( ) Y.^.AXKXJXJXJXJXIXHX*Xo       @ r 5XZXLXLXLXPXPXPXIXZXbX5 +       + 1XIXKXKXJXJXKXfXm.R l.n.l.x.2.UXUXUXUXUX",
"UXUXUXUXUXO.c s Z ) P.Y.{.DXKXJXKXJXJXKXJX3X$         o $ 1 -X1X1X,X-X4 * o       X = 5XPXKXKXKXJXKXAXf.R R n.l.n.u.UXUXUXUXUXUX",
"UXUXUXUXUXUX[ m V Z ) I.Y.9XHXKXKXJXJXJXJXIXVXr @               .               @ -XZXLXJXJXJXJXKXSXL.P R l.n.n.c.;.UXUXUXUXUXUX",
"UXUXUXUXUXUXUX] s V Z ) I.~.uXFXLXLXIXKXKXLXIXIXnX-X* O                   o * -XnXLXLXJXJXJXJXKXSXD.R R ~ l.R l.=.UXUXUXUXUXUXUX",
"UXUXUXUXUXUXUX@.b s V ( ) Y.~.uXFXIXPXPXJXJXJXJXPXKXHXbX,X4 : = * * ; 4 ,XbXZXPXIXJXJXJXJXKXKXSXS.! R R R R x.u.UXUXUXUXUXUXUXUX",
"UXUXUXUXUXUXUXUX..c d Z ( P.W.~.$XvXKXIXJXJXJXJXKXJXPXKXPXKXJXHXZXJXJXLXLXKXLXJXJXJXJXJXJXJXfXm.U R R R ! ! i.@.UXUXUXUXUXUXUXUX",
"UXUXUXUXUXUXUXUXUX#.v V Z ( P.Y.'.XXgXFXKXKXLXIXJXJXJXJXJXJXJXJXKXIXKXIXJXJXJXJXKXJXKXKXDX0Xj.W ! ! ! ! R q.;.UXUXUXUXUXUXUXUXUX",
"UXUXUXUXUXUXUXUXUXUX#.v V Z ) I.W.].XXuXvXHXLXIXJXJXJXJXJXJXJXJXKXKXIXKXJXJXJXJXKXKXGXkXN.K W W ! ! ! ! q.;.UXUXUXUXUXUXUXUXUXUX",
"UXUXUXUXUXUXUXUXUXUXUX#.v V ( ) I.'.].oXXX&XxXFXJXLXLXKXJXJXJXJXKXKXKXIXJXLXJXIXSXeXN.K C W W ! U ! ! 0.>.UXUXUXUXUXUXUXUXUXUXUX",
"UXUXUXUXUXUXUXUXUXUXUXUXo.b A ( ) Y.~.oXOXoX|.XXwXxXSXHXJXJXKXKXJXJXJXHXDXAXkXG.c.L C W U W W W W ! t.O.UXUXUXUXUXUXUXUXUXUXUXUX",
"UXUXUXUXUXUXUXUXUXUXUXUXUXO. .I ( ) Y.'.oXOXOXoX`.(.^.K.%X0XaXpXaX0XH.L.m.K L M W F W W C F W W j.C.UXUXUXUXUXUXUXUXUXUXUXUXUXUX",
"UXUXUXUXUXUXUXUXUXUXUXUXUXUXUX&.w.) I.Y.].oXOXOXoX]._._.E.R.n.R R U C N N F F F F F F W W F ! 0.$.UXUXUXUXUXUXUXUXUXUXUXUXUXUXUX",
"UXUXUXUXUXUXUXUXUXUXUXUXUXUXUXUXO.3.r.I.W.].OXOXoXoX]._.W.E.R.n.~ Q W F F N N F F F W F W w.*.UXUXUXUXUXUXUXUXUXUXUXUXUXUXUXUXUX",
"UXUXUXUXUXUXUXUXUXUXUXUXUXUXUXUXUXUXO.3.h.~.].OXOX].]._._._.E.E.R.~ Q W F F N F N F L w.*.O.UXUXUXUXUXUXUXUXUXUXUXUXUXUXUXUXUXUX",
"UXUXUXUXUXUXUXUXUXUXUXUXUXUXUXUXUXUXUXUX;X1.J. X+XOXoX].'._._.E.R.n.~ Q G W F L q.8.%.UXUXUXUXUXUXUXUXUXUXUXUXUXUXUXUXUXUXUXUXUX",
"UXUXUXUXUXUXUXUXUXUXUXUXUXUXUXUXUXUXUXUXUXUXUX:X6.7.J.D. X^.).b.b.x.c.e.0.t.*.$.UXUXUXUXUXUXUXUXUXUXUXUXUXUXUXUXUXUXUXUXUXUXUXUX",
"UXUXUXUXUXUXUXUXUXUXUXUXUXUXUXUXUXUXUXUXUXUXUXUXUXUXUXUX:X:X>.>.,.>.>.UXUXUXUXUXUXUXUXUXUXUXUXUXUXUXUXUXUXUXUXUXUXUXUXUXUXUXUXUX",
"UXUXUXUXUXUXUXUXUXUXUXUXUXUXUXUXUXUXUXUXUXUXUXUXUXUXUXUXUXUXUXUXUXUXUXUXUXUXUXUXUXUXUXUXUXUXUXUXUXUXUXUXUXUXUXUXUXUXUXUXUXUXUXUX"
};
